<?xml version="1.0" standalone="no"?>
<!DOCTYPE svg PUBLIC "-//W3C//DTD SVG 20010904//EN"
 "http://www.w3.org/TR/2001/REC-SVG-20010904/DTD/svg10.dtd">
<svg version="1.0" xmlns="http://www.w3.org/2000/svg"
 width="1024.000000pt" height="1024.000000pt" viewBox="0 0 1024.000000 1024.000000"
 preserveAspectRatio="xMidYMid meet">
<metadata>
Created by potrace 1.16, written by Peter Selinger 2001-2019
</metadata>
<g transform="translate(0.000000,1024.000000) scale(0.100000,-0.100000)"
fill="#000000" stroke="none">
<path d="M4875 8854 c-603 -62 -958 -144 -1450 -337 -306 -119 -957 -459
-1140 -595 l-50 -37 35 -3 c60 -4 225 -31 250 -40 22 -8 21 -10 -23 -36 -132
-76 -306 -236 -456 -416 -76 -91 -201 -262 -201 -273 0 -3 82 -2 182 1 156 4
181 3 172 -9 -6 -8 -35 -43 -63 -79 -69 -86 -153 -227 -197 -331 -37 -87 -96
-275 -108 -343 l-8 -39 24 15 c108 71 296 161 433 208 44 16 89 31 100 36 11
4 -9 -25 -45 -65 -143 -160 -217 -253 -321 -410 -117 -174 -249 -429 -314
-604 -40 -111 -102 -318 -111 -379 l-7 -39 69 52 c114 87 244 168 341 215 50
24 94 44 98 44 4 0 -12 -21 -35 -47 -116 -132 -261 -397 -335 -614 -44 -129
-86 -309 -101 -434 l-7 -60 108 103 c89 85 313 252 338 252 3 0 -7 -20 -24
-45 -143 -212 -256 -642 -247 -938 l3 -97 52 67 c29 38 89 106 133 153 l80 85
-7 -50 c-4 -27 -7 -126 -7 -220 1 -141 6 -191 27 -295 35 -168 105 -368 180
-515 l62 -120 11 120 c15 157 38 274 74 386 42 127 47 134 55 74 38 -289 164
-639 312 -872 102 -162 352 -461 340 -408 -3 11 -17 61 -31 110 -44 146 -67
305 -72 480 -4 155 -4 158 11 107 56 -197 196 -454 361 -662 125 -157 458
-471 429 -404 -61 142 -139 442 -151 586 l-6 73 45 -77 c128 -220 388 -520
592 -683 81 -65 216 -157 221 -152 3 2 -18 51 -45 108 -27 57 -61 140 -75 184
-29 87 -76 259 -72 262 1 1 18 -19 37 -45 75 -99 230 -261 348 -362 113 -96
338 -259 422 -304 l35 -18 129 84 c239 156 476 364 645 567 41 49 76 89 77 88
1 -1 -12 -51 -28 -111 -38 -138 -91 -281 -139 -373 -20 -40 -35 -73 -33 -73
12 0 109 63 194 127 233 173 499 477 620 710 l41 78 -7 -88 c-12 -170 -53
-346 -115 -497 -16 -41 -30 -79 -30 -83 0 -14 75 45 178 140 293 270 509 601
598 918 l23 80 0 -140 c1 -77 -4 -180 -10 -230 -11 -93 -70 -339 -90 -376 -20
-38 1 -33 47 12 114 109 290 352 369 509 106 210 191 464 215 642 24 169 21
168 63 38 47 -146 63 -224 77 -380 6 -69 13 -126 14 -128 6 -5 76 117 111 193
47 102 109 289 129 385 37 185 46 392 22 528 l-12 73 79 -78 c43 -43 101 -107
130 -143 28 -36 55 -69 60 -75 17 -19 0 312 -22 440 -35 195 -126 440 -215
579 -20 32 -31 54 -24 50 113 -67 259 -177 360 -272 l71 -67 -7 73 c-17 188
-95 448 -196 657 -72 147 -127 235 -217 348 -29 37 -50 67 -46 67 4 0 59 -27
120 -59 125 -65 259 -153 328 -213 25 -22 48 -38 51 -35 18 17 -75 329 -153
512 -139 331 -297 579 -548 864 l-115 130 68 -25 c193 -73 353 -148 462 -218
30 -19 56 -34 57 -32 5 4 -46 181 -77 271 -65 185 -187 402 -283 503 l-31 32
115 -1 c62 0 147 -4 187 -8 39 -4 72 -5 72 -3 0 3 -52 76 -116 164 -171 235
-323 387 -517 517 -43 29 -77 55 -74 57 7 7 209 34 257 34 57 0 56 1 -145 127
-750 470 -1465 733 -2250 829 -124 15 -644 28 -740 18z" fill="#ffffff"/>
<path d="M4875 8854 c-603 -62 -958 -144 -1450 -337 -306 -119 -957 -459
-1140 -595 l-50 -37 35 -3 c60 -4 225 -31 250 -40 22 -8 21 -10 -23 -36 -132
-76 -306 -236 -456 -416 -76 -91 -201 -262 -201 -273 0 -3 82 -2 182 1 156 4
181 3 172 -9 -6 -8 -35 -43 -63 -79 -69 -86 -153 -227 -197 -331 -37 -87 -96
-275 -108 -343 l-8 -39 24 15 c108 71 296 161 433 208 44 16 89 31 100 36 11
4 -9 -25 -45 -65 -143 -160 -217 -253 -321 -410 -117 -174 -249 -429 -314
-604 -40 -111 -102 -318 -111 -379 l-7 -39 69 52 c114 87 244 168 341 215 50
24 94 44 98 44 4 0 -12 -21 -35 -47 -116 -132 -261 -397 -335 -614 -44 -129
-86 -309 -101 -434 l-7 -60 108 103 c89 85 313 252 338 252 3 0 -7 -20 -24
-45 -143 -212 -256 -642 -247 -938 l3 -97 52 67 c29 38 89 106 133 153 l80 85
-7 -50 c-4 -27 -7 -126 -7 -220 1 -141 6 -191 27 -295 35 -168 105 -368 180
-515 l62 -120 11 120 c15 157 38 274 74 386 42 127 47 134 55 74 38 -289 164
-639 312 -872 102 -162 352 -461 340 -408 -3 11 -17 61 -31 110 -44 146 -67
305 -72 480 -4 155 -4 158 11 107 56 -197 196 -454 361 -662 125 -157 458
-471 429 -404 -61 142 -139 442 -151 586 l-6 73 45 -77 c128 -220 388 -520
592 -683 81 -65 216 -157 221 -152 3 2 -18 51 -45 108 -27 57 -61 140 -75 184
-29 87 -76 259 -72 262 1 1 18 -19 37 -45 75 -99 230 -261 348 -362 113 -96
338 -259 422 -304 l35 -18 129 84 c239 156 476 364 645 567 41 49 76 89 77 88
1 -1 -12 -51 -28 -111 -38 -138 -91 -281 -139 -373 -20 -40 -35 -73 -33 -73
12 0 109 63 194 127 233 173 499 477 620 710 l41 78 -7 -88 c-12 -170 -53
-346 -115 -497 -16 -41 -30 -79 -30 -83 0 -14 75 45 178 140 293 270 509 601
598 918 l23 80 0 -140 c1 -77 -4 -180 -10 -230 -11 -93 -70 -339 -90 -376 -20
-38 1 -33 47 12 114 109 290 352 369 509 106 210 191 464 215 642 24 169 21
168 63 38 47 -146 63 -224 77 -380 6 -69 13 -126 14 -128 6 -5 76 117 111 193
47 102 109 289 129 385 37 185 46 392 22 528 l-12 73 79 -78 c43 -43 101 -107
130 -143 28 -36 55 -69 60 -75 17 -19 0 312 -22 440 -35 195 -126 440 -215
579 -20 32 -31 54 -24 50 113 -67 259 -177 360 -272 l71 -67 -7 73 c-17 188
-95 448 -196 657 -72 147 -127 235 -217 348 -29 37 -50 67 -46 67 4 0 59 -27
120 -59 125 -65 259 -153 328 -213 25 -22 48 -38 51 -35 18 17 -75 329 -153
512 -139 331 -297 579 -548 864 l-115 130 68 -25 c193 -73 353 -148 462 -218
30 -19 56 -34 57 -32 5 4 -46 181 -77 271 -65 185 -187 402 -283 503 l-31 32
115 -1 c62 0 147 -4 187 -8 39 -4 72 -5 72 -3 0 3 -52 76 -116 164 -171 235
-323 387 -517 517 -43 29 -77 55 -74 57 7 7 209 34 257 34 57 0 56 1 -145 127
-750 470 -1465 733 -2250 829 -124 15 -644 28 -740 18z m-780 -1120 c66 -61
175 -168 243 -238 67 -69 124 -126 126 -126 6 0 -42 224 -63 290 -11 35 -19
65 -18 66 11 9 348 -411 437 -545 l30 -44 0 44 c-1 56 -17 272 -26 330 l-6 44
34 -55 c113 -179 199 -328 243 -417 28 -57 53 -103 57 -103 3 0 11 14 17 31
26 74 237 441 297 516 l20 26 -12 -104 c-14 -119 -23 -299 -14 -298 3 0 31 39
62 87 31 48 99 141 150 207 93 119 238 282 238 267 0 -5 -6 -31 -14 -58 -8
-27 -24 -94 -35 -149 -11 -55 -23 -109 -26 -120 -4 -12 10 -2 35 25 161 171
316 320 445 429 174 147 275 226 275 214 0 -5 -16 -56 -35 -113 -19 -57 -33
-105 -31 -107 2 -3 35 13 73 34 258 147 583 212 836 169 117 -20 260 -63 252
-77 -4 -5 -13 -9 -21 -9 -12 0 -194 -48 -287 -76 -27 -8 -13 -19 55 -45 82
-30 321 -174 428 -258 47 -36 132 -113 190 -171 l105 -105 -95 -2 c-136 -3
-380 -24 -380 -33 0 -4 24 -23 53 -43 60 -39 153 -123 237 -210 56 -60 201
-249 195 -255 -1 -2 -52 21 -111 51 -264 132 -649 246 -919 273 l-70 7 60 27
c33 14 125 48 205 75 143 49 144 49 105 58 -22 4 -105 7 -185 5 -126 -4 -155
-7 -216 -30 -135 -49 -449 -192 -711 -323 -145 -72 -263 -128 -263 -124 0 4
89 98 198 208 108 111 194 201 190 201 -20 0 -186 -80 -277 -134 -104 -61
-312 -220 -408 -312 l-52 -49 25 -175 c17 -122 26 -242 30 -395 l5 -220 -34
70 c-128 266 -141 289 -199 350 -115 124 -217 168 -388 168 -168 0 -274 -45
-382 -162 -49 -53 -128 -190 -211 -366 l-28 -60 5 185 c4 155 26 394 52 576
l6 41 -132 109 c-72 60 -173 138 -223 173 -87 59 -357 201 -384 201 -7 0 38
-51 100 -112 63 -62 153 -157 202 -211 l89 -99 -254 127 c-262 131 -593 283
-722 331 -66 25 -88 28 -243 31 -93 3 -181 1 -194 -4 -21 -8 -15 -13 55 -37
203 -72 297 -107 311 -115 10 -5 -13 -11 -63 -15 -265 -24 -702 -159 -941
-292 -34 -19 -64 -34 -68 -34 -3 0 22 42 57 92 77 113 268 308 362 371 43 29
64 48 55 51 -32 10 -241 26 -347 26 l-113 0 58 66 c171 195 448 390 692 487
24 10 42 20 39 22 -2 2 -80 25 -173 50 -94 26 -172 49 -174 50 -6 7 163 54
248 69 250 47 567 -12 839 -154 61 -33 112 -56 112 -52 0 4 -20 60 -45 125
-25 66 -45 121 -45 123 0 9 291 -237 405 -342z m-586 -839 c32 -19 72 -35 88
-35 72 0 126 -75 103 -144 -15 -46 -42 -68 -92 -73 -34 -4 -50 0 -80 20 -45
31 -48 26 -48 -77 0 -119 59 -209 169 -260 35 -16 65 -21 126 -20 102 0 166
27 230 95 48 51 62 79 73 142 l7 37 64 -51 c60 -49 63 -53 57 -87 -9 -61 -57
-145 -115 -203 -268 -268 -730 -112 -784 264 -18 129 29 306 105 393 17 19 32
34 34 34 1 0 30 -16 63 -35z m3382 -2 c39 -45 82 -138 98 -211 41 -194 -50
-413 -210 -509 -136 -81 -345 -84 -475 -8 -107 62 -197 179 -218 281 -6 29 -3
33 53 72 32 23 61 42 64 42 2 0 10 -20 17 -45 47 -168 258 -260 427 -185 57
25 117 81 145 134 23 44 34 127 24 179 l-7 36 -35 -21 c-49 -29 -109 -20 -146
22 -61 67 -19 180 65 180 22 0 57 13 93 34 33 19 62 35 65 35 4 1 22 -16 40
-36z m-3715 -12 c-57 -109 -79 -371 -42 -496 48 -163 180 -333 311 -402 191
-100 413 -108 603 -22 34 15 62 25 62 23 0 -3 -23 -39 -52 -81 -58 -84 -99
-123 -246 -232 -57 -42 -97 -77 -90 -79 23 -5 249 98 320 144 133 88 256 253
304 408 l19 60 7 -40 c4 -21 7 -65 7 -96 2 -128 55 -447 99 -584 l19 -61 -61
20 c-46 15 -89 20 -171 20 -218 1 -363 -64 -554 -248 l-93 -90 263 -6 c286 -6
318 -12 460 -75 l63 -29 -83 -12 c-94 -13 -187 -54 -249 -110 l-37 -33 40 7
c72 14 285 7 355 -11 191 -50 326 -167 432 -372 54 -103 147 -331 228 -558 32
-87 60 -154 63 -150 3 5 32 84 66 176 122 338 227 574 297 670 140 191 365
276 654 249 58 -5 106 -9 107 -7 6 6 -136 97 -182 117 -25 11 -80 23 -123 27
l-77 7 73 33 c137 61 208 72 477 72 l239 0 -74 76 c-171 172 -318 249 -520
269 -59 6 -187 -9 -268 -31 -23 -6 -23 -6 -8 27 39 88 91 438 98 667 1 39 5
72 8 72 3 0 15 -27 28 -60 53 -138 164 -292 269 -375 88 -69 341 -191 359
-173 3 3 -46 44 -109 91 -119 90 -226 197 -264 264 l-22 40 82 -33 c111 -45
233 -62 335 -47 165 24 282 81 387 188 82 83 136 171 169 275 53 167 43 295
-38 515 -15 39 102 -96 133 -155 49 -91 64 -153 64 -265 1 -128 -13 -185 -75
-314 -44 -91 -61 -116 -137 -191 -69 -68 -105 -95 -178 -132 -51 -26 -89 -49
-85 -51 4 -3 25 -10 47 -17 66 -21 205 -94 300 -158 250 -168 449 -400 580
-675 64 -136 95 -224 131 -382 24 -107 28 -145 32 -351 3 -145 0 -264 -7 -320
-13 -94 -43 -252 -62 -319 l-11 -39 -52 110 c-96 201 -225 385 -366 523 -61
61 -253 221 -264 221 -2 0 17 -42 44 -92 64 -122 105 -248 131 -400 18 -105
21 -149 16 -303 -8 -270 -61 -474 -191 -733 -56 -111 -190 -327 -230 -369 -8
-9 -11 32 -11 165 -1 133 -7 213 -24 322 -36 236 -106 486 -177 635 l-29 60
-6 -130 c-9 -171 -32 -304 -79 -446 -114 -342 -258 -568 -539 -850 -136 -135
-345 -319 -364 -319 -2 0 20 57 50 127 107 249 171 537 180 816 4 98 2 167 -3
167 -5 0 -23 -39 -39 -87 -37 -110 -128 -295 -193 -393 -112 -167 -299 -378
-475 -534 l-77 -68 -46 38 c-158 129 -379 373 -492 544 -70 104 -169 298 -207
405 -15 44 -32 84 -37 90 -12 13 -10 -227 3 -343 21 -200 113 -527 194 -693
18 -38 30 -69 27 -69 -19 0 -263 210 -378 324 -209 209 -351 414 -455 660 -97
229 -149 461 -149 669 l-1 102 -40 -83 c-111 -232 -185 -582 -197 -937 l-7
-190 -47 66 c-171 238 -312 555 -360 807 -32 166 -31 432 0 580 33 154 68 257
123 361 27 52 47 96 45 99 -9 9 -196 -150 -283 -241 -153 -161 -264 -320 -343
-494 -27 -57 -50 -107 -53 -109 -6 -6 -30 96 -59 254 -29 155 -31 545 -5 687
73 388 233 701 489 951 151 149 277 235 463 319 53 24 99 45 102 48 2 3 -37
27 -87 53 -158 81 -266 207 -332 386 -25 68 -31 103 -35 193 -6 129 10 212 59
312 27 54 129 183 144 183 3 0 -2 -13 -10 -29z m2090 -716 c60 -18 137 -67
164 -105 19 -26 19 -30 4 -66 -45 -107 37 -227 138 -205 20 5 40 11 46 15 17
10 76 -206 86 -319 l7 -70 -26 50 c-86 164 -316 387 -456 440 -14 5 -16 -40
-22 -452 -7 -448 -14 -614 -39 -898 -8 -98 -14 -131 -19 -110 -17 71 -49 879
-49 1251 0 110 -3 203 -6 207 -4 3 -30 -5 -58 -20 -159 -79 -316 -239 -413
-418 -38 -69 -38 -67 -17 73 12 83 56 256 69 270 1 1 15 -4 31 -13 57 -29 117
-10 153 48 27 43 27 101 1 152 l-20 39 23 24 c33 36 104 83 156 103 57 23 179
25 247 4z m-883 -870 c150 -39 197 -87 337 -340 l33 -60 -62 67 c-162 176
-412 307 -585 308 -53 0 -36 16 29 28 77 15 185 14 248 -3z m1792 1 c48 -13
49 -14 20 -20 -263 -55 -401 -128 -569 -300 l-69 -71 48 90 c64 120 95 164
153 216 46 41 132 81 202 92 57 9 168 6 215 -7z"/>
</g>
</svg>
